<?xml version="1.0" standalone="no"?>
<!DOCTYPE svg PUBLIC "-//W3C//DTD SVG 20010904//EN"
 "http://www.w3.org/TR/2001/REC-SVG-20010904/DTD/svg10.dtd">
<svg version="1.0" xmlns="http://www.w3.org/2000/svg"
 width="800.000000pt" height="800.000000pt" viewBox="0 0 800.000000 800.000000"
 preserveAspectRatio="xMidYMid meet">
<metadata>
Created by potrace 1.14, written by Peter Selinger 2001-2017
</metadata>
<g transform="translate(0.000000,800.000000) scale(0.100000,-0.100000)"
fill="#000000" stroke="none">
<path d="M1321 7987 c-8 -10 -7 -19 3 -33 14 -18 34 -19 478 -20 394 -1 468
-4 498 -17 80 -35 112 -94 109 -199 -2 -68 -22 -172 -44 -225 -8 -18 -12 -33
-10 -33 2 0 -5 -21 -16 -47 -12 -27 -22 -55 -24 -63 -4 -15 -68 -177 -85 -215
-17 -37 -107 -258 -190 -465 -45 -113 -85 -214 -90 -225 -5 -11 -77 -191 -160
-400 -83 -209 -154 -389 -159 -400 -5 -11 -14 -33 -21 -50 -8 -16 -14 -34 -16
-40 -2 -9 -55 -139 -87 -215 -5 -14 -11 -30 -12 -36 -2 -6 -10 -27 -18 -45 -9
-19 -50 -122 -92 -229 -43 -107 -82 -206 -88 -220 -6 -14 -11 -27 -11 -30 -4
-14 -42 -108 -53 -130 -7 -14 -13 -29 -13 -33 0 -5 -14 -41 -31 -80 -17 -39
-32 -75 -34 -81 -1 -6 -7 -22 -12 -36 -6 -14 -39 -92 -73 -175 -35 -82 -73
-173 -86 -202 -13 -28 -24 -55 -24 -58 0 -3 -12 -32 -26 -62 -59 -131 -270
-648 -263 -648 1 0 -7 -18 -18 -40 -12 -22 -21 -42 -21 -45 0 -3 -6 -18 -12
-35 -6 -16 -22 -61 -36 -100 -14 -38 -29 -79 -34 -90 -10 -24 -22 -56 -26 -70
-2 -5 -15 -41 -29 -80 -32 -88 -34 -94 -35 -100 0 -3 -7 -22 -16 -43 -21 -48
-163 -472 -159 -472 2 0 -3 -17 -11 -37 -9 -20 -17 -44 -19 -52 -2 -9 -15 -56
-30 -106 -14 -49 -28 -97 -30 -105 -2 -8 -15 -62 -28 -120 -14 -58 -28 -121
-31 -140 -3 -19 -8 -46 -11 -60 -5 -22 -8 -42 -21 -130 -19 -134 -26 -443 -12
-572 41 -376 212 -630 522 -778 148 -70 270 -94 481 -94 155 0 214 4 221 16 3
5 9 6 14 3 4 -2 30 2 56 10 27 8 49 14 49 13 0 -1 31 9 69 22 69 23 201 88
242 119 12 9 32 23 44 31 32 21 209 161 245 194 172 158 403 411 545 596 19
25 37 47 40 50 5 4 44 57 120 160 62 85 237 318 251 335 9 11 65 79 125 150
59 72 110 132 113 135 4 3 42 45 86 94 279 313 572 530 819 605 117 36 182 44
341 43 103 0 150 -3 235 -16 158 -23 333 -95 450 -183 195 -148 397 -433 509
-716 35 -89 112 -315 117 -342 3 -23 38 -164 59 -240 48 -178 79 -286 93 -325
20 -59 25 -241 7 -315 -20 -87 -76 -157 -166 -207 -51 -29 -154 -66 -206 -74
-19 -3 -45 -8 -57 -11 -11 -3 -145 -6 -297 -8 -152 -1 -281 -5 -288 -9 -15
-10 -14 -43 1 -53 17 -10 2948 -11 2971 -1 19 9 23 43 7 53 -6 4 -133 8 -283
10 -149 2 -283 6 -297 9 -14 3 -34 8 -45 10 -126 25 -216 71 -274 140 -9 10
-21 23 -26 30 -54 61 -113 190 -181 394 -30 92 -58 174 -61 182 -3 8 -7 20 -8
26 -2 6 -16 51 -33 100 -29 87 -101 309 -106 329 -2 6 -6 17 -9 25 -7 19 -140
438 -143 450 0 3 -3 12 -7 20 -5 13 -69 217 -72 230 -1 3 -6 21 -12 40 -76
244 -138 446 -150 490 -8 30 -19 62 -23 71 -5 9 -11 27 -14 40 -6 26 -18 69
-66 229 -18 58 -33 110 -34 115 -2 6 -5 17 -8 25 -3 8 -16 49 -27 90 -23 79
-66 224 -82 275 -16 50 -149 516 -165 575 -8 30 -21 72 -29 93 -8 20 -13 37
-10 37 2 0 -2 18 -10 40 -8 22 -14 41 -14 43 0 1 -2 9 -4 17 -8 24 -28 102
-32 119 -7 28 -46 166 -52 181 -3 8 -7 20 -8 25 -2 6 -8 30 -16 55 -7 25 -13
50 -15 55 -1 6 -23 84 -49 175 -26 91 -48 172 -50 181 -2 8 -11 40 -20 70 -15
48 -40 137 -50 179 -3 8 -36 128 -75 265 -39 138 -80 283 -91 324 -11 41 -24
82 -29 91 -5 10 -7 20 -4 23 3 3 1 14 -5 25 -5 10 -12 30 -15 43 -8 38 -12 55
-61 224 -25 88 -47 173 -50 189 -3 16 -10 37 -15 46 -5 9 -12 30 -14 46 -3 16
-15 61 -26 99 -12 39 -23 77 -24 85 -2 8 -9 33 -15 55 -6 22 -11 45 -12 50 -1
6 -6 21 -11 35 -5 14 -12 34 -14 45 -2 11 -18 70 -35 130 -17 61 -33 119 -35
131 -2 12 -10 40 -19 63 -8 23 -14 43 -14 46 -1 13 -14 63 -22 85 -15 39 -19
69 -26 161 -14 207 55 311 237 356 8 3 188 5 400 6 212 2 391 6 397 10 7 5 11
18 9 30 l-3 22 -2260 3 c-1875 2 -2262 0 -2272 -11z m1870 -454 c2 -685 -2
-1816 -6 -1863 -12 -141 -22 -207 -49 -320 -28 -118 -90 -256 -158 -348 -41
-55 -136 -152 -150 -152 -4 0 -13 -6 -20 -12 -14 -13 -30 -23 -92 -57 -34 -19
-135 -61 -157 -65 -8 -2 -21 -6 -29 -9 -23 -8 -101 -27 -135 -32 -16 -3 -41
-7 -55 -10 -36 -8 -100 -14 -209 -21 -129 -8 -720 -8 -728 0 -3 3 -1 16 5 29
6 12 46 110 88 217 42 107 81 206 87 220 5 14 11 31 13 38 1 8 9 28 17 45 8
18 29 70 47 117 18 47 38 99 45 115 7 17 27 68 45 115 17 47 36 94 41 105 10
24 32 78 34 85 3 15 134 349 151 387 8 17 14 34 14 38 0 3 8 25 19 48 10 23
34 83 53 132 19 50 39 99 43 110 5 11 9 22 10 25 1 3 7 19 14 35 7 17 19 46
26 65 8 19 23 60 35 90 11 30 33 89 47 130 14 41 30 79 34 85 5 5 9 15 9 23 0
8 7 28 14 45 8 18 42 97 76 176 84 199 131 289 190 365 22 28 114 116 122 116
4 0 13 6 20 13 19 18 175 84 223 93 46 9 41 8 78 18 26 8 101 19 160 24 l27 2
1 -217z m249 201 c30 -4 63 -8 73 -10 51 -11 64 -15 111 -30 163 -51 296 -157
384 -304 38 -65 88 -177 103 -235 4 -16 26 -93 49 -170 23 -77 44 -149 47
-160 3 -11 11 -41 19 -66 8 -25 17 -54 19 -65 5 -21 39 -138 145 -504 39 -135
73 -254 76 -265 7 -27 9 -33 23 -85 7 -25 15 -52 17 -60 4 -18 24 -87 57 -197
14 -46 23 -83 20 -83 -2 0 -1 -6 4 -12 4 -7 8 -18 9 -25 1 -7 12 -45 24 -85
12 -40 28 -95 36 -123 7 -27 21 -77 31 -110 9 -33 18 -62 18 -65 1 -3 7 -25
15 -50 7 -25 15 -52 16 -60 2 -8 18 -62 35 -120 17 -58 34 -118 39 -135 4 -16
11 -37 15 -46 3 -10 1 -20 -5 -24 -22 -14 -563 -6 -640 10 -13 2 -42 7 -65 11
-22 3 -58 10 -80 15 -22 5 -50 12 -63 15 -129 28 -332 135 -418 221 -137 137
-226 330 -269 587 -4 21 -8 48 -11 59 -18 98 -27 2173 -9 2181 11 5 83 1 175
-10z m-1300 -3168 c346 -21 592 -113 769 -288 56 -54 149 -182 156 -212 1 -6
12 -33 24 -61 28 -62 62 -182 75 -265 24 -147 24 -145 27 -849 1 -565 0 -635
-14 -643 -17 -9 -269 -198 -277 -207 -3 -4 -23 -19 -45 -36 -22 -16 -42 -32
-45 -35 -6 -8 -176 -148 -219 -180 -18 -14 -40 -32 -49 -41 -74 -71 -577 -429
-603 -429 -5 0 -30 -14 -56 -30 -85 -54 -243 -107 -373 -125 -135 -19 -337 4
-450 52 -57 24 -145 66 -150 72 -3 3 -21 15 -40 25 -66 36 -154 132 -197 213
-35 67 -69 157 -80 213 -24 132 -23 457 2 550 2 8 6 32 9 53 13 83 18 106 42
202 13 55 26 108 29 118 6 25 54 187 65 217 11 33 59 193 61 202 0 4 9 31 20
60 11 29 22 60 24 68 4 21 41 129 56 165 7 17 13 35 15 40 2 9 60 162 79 210
5 11 9 22 10 25 1 3 5 14 10 25 4 11 39 99 77 195 38 96 73 184 78 195 20 43
43 101 45 110 0 6 10 30 21 55 12 25 47 111 78 192 37 94 63 148 74 150 27 5
652 1 752 -6z m2703 5 c9 -1 22 -33 35 -83 12 -46 31 -117 43 -158 11 -41 40
-149 63 -240 24 -91 69 -253 101 -360 31 -107 61 -208 65 -225 5 -16 18 -61
30 -100 23 -77 58 -220 66 -273 3 -19 8 -44 10 -56 3 -11 7 -70 9 -131 7 -197
-25 -285 -109 -300 -66 -12 -208 9 -358 54 -38 11 -68 17 -68 15 0 -3 -5 -2
-12 2 -39 24 -421 25 -533 1 -11 -2 -38 -8 -60 -12 -22 -5 -42 -9 -45 -10 -27
-5 -187 -62 -228 -81 -29 -13 -55 -24 -59 -24 -12 0 -338 -165 -351 -177 -7
-7 -20 -13 -28 -13 -8 0 -14 -4 -14 -10 0 -5 -4 -10 -10 -10 -5 0 -35 -16 -66
-36 -30 -20 -58 -33 -61 -30 -6 5 -5 1170 1 1256 2 30 7 80 10 110 6 52 9 67
21 130 3 14 7 37 10 52 3 15 9 37 14 50 5 13 9 25 9 28 2 15 39 114 60 160 44
97 182 259 234 276 10 3 18 9 18 14 0 4 12 13 28 19 15 5 38 17 52 25 59 34
217 86 304 100 22 4 48 9 60 11 37 9 108 15 231 21 66 4 121 7 122 8 1 1 381
-2 406 -3z"/>
</g>
</svg>
