<svg width="69" height="60" viewBox="0 0 69 60" fill="none" xmlns="http://www.w3.org/2000/svg">
<path d="M22.5909 0.19424C22.3669 0.715886 22.1829 1.25956 21.9129 1.75617C20.3158 4.69782 18.6178 7.58639 17.1068 10.5711C14.4107 15.8977 12.4007 21.4806 11.2596 27.3579C11.2346 27.487 11.2566 27.6242 11.2566 27.6552C12.7507 27.436 14.2367 27.0955 15.7367 27.0185C20.6809 26.7651 24.904 28.4763 28.371 31.9976C30.8971 34.5628 32.4421 37.6767 32.8591 41.2371C33.5862 47.4427 31.4981 52.6021 26.614 56.516C23.3579 59.1252 19.5438 60.2866 15.4067 59.9402C9.28758 59.4276 4.72648 56.3888 1.82041 50.9371C0.162369 47.8262 -0.106637 44.4631 0.0313661 41.0208C0.164369 37.6847 0.464376 34.3675 1.08639 31.0845C2.20142 25.2022 3.99246 19.5622 7.01853 14.3568C9.7986 9.57486 13.5257 5.70106 18.1228 2.64928C19.2838 1.87833 20.4328 1.08835 21.5999 0.325403C21.8309 0.174216 22.1149 0.106131 22.3739 0C22.4469 0.0650806 22.5189 0.12916 22.5909 0.19424Z" fill="#A8A8A8"/>
<path d="M58.6027 0.235198C58.2727 0.932784 57.9697 1.64438 57.6097 2.32596C55.7018 5.93999 53.6659 9.49198 51.892 13.1711C49.692 17.7339 48.1601 22.546 47.2232 27.5351C47.2072 27.6192 47.2211 27.7093 47.2211 27.6903C48.6661 27.4651 50.088 27.1398 51.527 27.0377C55.5388 26.7515 59.1777 27.8664 62.3925 30.2765C65.7514 32.7946 67.8953 36.1454 68.6873 40.2578C70.1442 47.8252 66.4034 55.0993 59.6956 58.32C52.7229 61.6678 44.7213 59.9134 39.7605 53.9373C37.5645 51.2921 36.3416 48.2325 36.0896 44.7756C35.8496 41.4969 36.1276 38.2482 36.4996 34.9994C37.1256 29.5268 38.4535 24.2344 40.6054 19.1611C43.3753 12.6316 47.5021 7.18204 53.4149 3.16766C54.6788 2.30994 55.9208 1.41919 57.1907 0.57048C57.5477 0.330278 57.9687 0.187157 58.3607 0C58.4417 0.0780656 58.5227 0.157132 58.6027 0.235198Z" fill="#A8A8A8"/>
</svg>
