<svg width="49" height="50" viewBox="0 0 49 50" fill="none" xmlns="http://www.w3.org/2000/svg">
<path d="M27.3928 21.0097C24.744 21.0097 22.8159 20.3959 21.6075 19.168C20.4459 17.9401 19.865 16.0301 19.865 13.4381V1.56878C21.4915 1.61436 22.6996 1.95525 23.4894 2.59199C24.2792 3.22873 24.8371 4.09254 25.1623 5.18398C25.6734 6.91215 26.3239 9.16298 27.114 11.937C27.9041 14.7111 28.7637 17.7351 29.6931 21.0094L27.3928 21.0097ZM31.993 29.1268C32.086 29.445 32.1788 29.8318 32.2718 30.2865C32.3648 30.7412 32.4113 31.1732 32.4113 31.5826C32.4578 31.992 32.4346 32.3785 32.3416 32.7423C32.2951 33.0605 32.1558 33.2878 31.9233 33.4243C31.8302 33.4699 31.6677 33.4925 31.4355 33.4925C30.9707 33.4925 30.4131 33.4017 29.7625 33.2196C29.1585 32.9923 28.3222 32.8785 27.2533 32.8785C25.9522 32.8785 24.6975 33.1514 23.4894 33.697C22.2813 34.1972 21.0732 34.8337 19.865 35.6069V28.7856C19.865 26.1481 20.4226 24.2608 21.538 23.124C22.6996 21.987 24.6513 21.4188 27.3928 21.4188H29.8323C30.2041 22.692 30.5526 23.9881 30.8779 25.3069C31.2497 26.5804 31.6212 27.8536 31.993 29.1268ZM14.5678 4.91133C15.1253 3.54696 15.8224 2.66022 16.6587 2.25111C17.5415 1.84171 18.4709 1.61436 19.4467 1.56906V13.4381C19.4467 16.1213 18.8659 18.0539 17.7043 19.2362C16.5427 20.4185 14.591 21.0097 11.8495 21.0097H8.22485C8.92193 19.2362 9.619 17.4627 10.3158 15.6889C11.0129 13.8699 11.6635 12.2102 12.2675 10.7094C12.8716 9.20884 13.3596 7.93536 13.7312 6.8895C14.1495 5.84365 14.4282 5.18425 14.5678 4.91133ZM11.8492 21.4188C14.498 21.4188 16.4262 22.0099 17.6346 23.1923C18.8427 24.3293 19.4467 26.1936 19.4467 28.7856V35.8798C18.4244 36.6075 17.4253 37.3804 16.4497 38.1992C15.4738 39.0177 14.5212 39.768 13.5919 40.4503C12.6626 41.1323 11.7565 41.7008 10.8736 42.1555C9.9908 42.5649 9.10796 42.7693 8.22485 42.7693C6.92371 42.7693 5.73885 42.3829 4.66998 41.6097C3.60111 40.7912 3.06681 39.4497 3.06681 37.5851C3.06681 36.4481 3.25257 35.1522 3.62436 33.697C4.04266 32.1964 4.5072 30.6956 5.01851 29.195C5.57607 27.6945 6.13362 26.2619 6.69144 24.8975C7.24927 23.5331 7.71381 22.3738 8.0856 21.4188H11.8492ZM30.3899 49.1133C30.2968 49.1133 30.2503 49.1588 30.2503 49.2497V49.3862C30.2503 49.4771 30.2968 49.5227 30.3899 49.5227H48.791C48.9305 49.5227 49 49.4771 49 49.3862V49.2497C49 49.1588 48.9302 49.1133 48.791 49.1133H46.6303C45.1899 49.1133 44.1675 48.8633 43.5635 48.363C43.0059 47.8627 42.5411 47.0442 42.1693 45.9075C39.8458 38.9041 37.6851 31.9011 35.6872 24.8978C33.6892 17.8945 31.7143 10.8459 29.7625 3.75193C29.4838 2.79696 29.4838 2.00111 29.7625 1.36436C30.0413 0.727624 30.6919 0.409392 31.7143 0.409392H35.8964C36.036 0.409392 36.1055 0.34116 36.1055 0.204696V0.136464C36.1055 0.0455801 36.0357 0 35.8964 0H8.01556C7.8298 0 7.73678 0.0455801 7.73678 0.136464V0.204696C7.73678 0.34116 7.8298 0.409392 8.01556 0.409392H13.1736C14.1029 0.409392 14.5678 0.818785 14.5678 1.63729C14.5678 2.00111 14.5212 2.36492 14.4282 2.72873C14.3352 3.04696 14.1727 3.52459 13.9404 4.16133C13.5221 5.20718 13.0111 6.45773 12.407 7.91298C11.8495 9.32265 11.2687 10.7779 10.6646 12.2787C10.0606 13.7793 9.47975 15.2345 8.9222 16.6445C8.36465 18.0544 7.87659 19.282 7.45856 20.3279C6.57573 22.5561 5.66964 24.739 4.74029 26.8762C3.85746 29.0135 3.06736 31.0599 2.37056 33.0155C1.67348 34.9254 1.09268 36.7445 0.628145 38.4724C0.209012 40.1547 0 41.7008 0 43.1105C0 45.5207 0.60406 47.2715 1.81218 48.363C3.0203 49.4544 4.53073 50 6.34291 50C7.8298 50 9.17745 49.6135 10.3856 48.8403C11.5937 48.0218 12.7323 47.0213 13.8009 45.8389C14.916 44.611 15.9616 43.3152 16.9375 41.9508C17.9598 40.5412 19.0052 39.245 20.0741 38.0627C21.1429 36.8348 22.258 35.8345 23.4196 35.0613C24.6278 34.2428 25.9289 33.8334 27.3231 33.8334C29.5535 33.8334 31.2727 34.4702 32.4811 35.7434C33.6892 37.0166 34.5721 38.4718 35.1299 40.1091C35.5017 41.1097 35.7804 42.0646 35.9662 42.974C36.1985 43.8834 36.431 44.7022 36.6633 45.4296C36.7563 45.839 36.7796 46.2707 36.733 46.7257C36.733 47.1804 36.5935 47.5898 36.3147 47.9536C36.0825 48.2718 35.6642 48.5448 35.0601 48.7721C34.5026 48.9994 33.7357 49.1133 32.7599 49.1133H30.3899Z" fill="#987654"/>
</svg>
